<svg width="378" height="141" viewBox="0 0 378 141" fill="none" xmlns="http://www.w3.org/2000/svg">
<path d="M0 4V2H-2V4H0ZM55.4 4H57.4V2H55.4V4ZM55.4 137V139H57.4V137H55.4ZM19.6 137H17.6V139H19.6V137ZM19.6 34.2H21.6V32.2H19.6V34.2ZM0 34.2H-2V36.2H0V34.2ZM0 6H55.4V2H0V6ZM53.4 4V137H57.4V4H53.4ZM55.4 135H19.6V139H55.4V135ZM21.6 137V34.2H17.6V137H21.6ZM19.6 32.2H0V36.2H19.6V32.2ZM2 34.2V4H-2V34.2H2ZM104.591 132L105.682 130.324L104.591 132ZM84.1906 107.6L82.362 108.41L82.3663 108.42L82.3707 108.429L84.1906 107.6ZM92.9906 19.8L94.5284 21.0788L92.9906 19.8ZM177.791 19.8L179.328 18.5212L177.791 19.8ZM177.591 121.6L176.061 120.312L176.053 120.321L177.591 121.6ZM119.191 99L117.446 99.9772L117.45 99.9848L117.454 99.9923L119.191 99ZM151.391 99L149.669 97.9814L149.662 97.9945L149.654 98.0077L151.391 99ZM151.391 42.4L149.646 43.3772L149.653 43.3904L149.661 43.4034L151.391 42.4ZM119.191 42.4L120.927 43.3923L120.931 43.3848L120.936 43.3772L119.191 42.4ZM135.391 138.6C123.998 138.6 114.12 135.822 105.682 130.324L103.499 133.676C112.661 139.645 123.317 142.6 135.391 142.6V138.6ZM105.682 130.324C97.2326 124.819 90.6698 116.995 86.0106 106.771L82.3707 108.429C87.3115 119.272 94.3487 127.714 103.499 133.676L105.682 130.324ZM86.0192 106.79C81.4881 96.5626 79.1906 84.516 79.1906 70.6H75.1906C75.1906 84.9507 77.5598 97.5707 82.362 108.41L86.0192 106.79ZM79.1906 70.6C79.1906 49.7307 84.3707 33.2937 94.5284 21.0788L91.4529 18.5212C80.5439 31.6396 75.1906 49.0693 75.1906 70.6H79.1906ZM94.5284 21.0788C104.65 8.90741 118.2 2.79999 135.391 2.79999V-1.20001C117.115 -1.20001 102.398 5.35924 91.4529 18.5212L94.5284 21.0788ZM135.391 2.79999C152.581 2.79999 166.131 8.90741 176.253 21.0788L179.328 18.5212C168.383 5.35924 153.666 -1.20001 135.391 -1.20001V2.79999ZM176.253 21.0788C186.411 33.2937 191.591 49.7307 191.591 70.6H195.591C195.591 49.0693 190.237 31.6396 179.328 18.5212L176.253 21.0788ZM191.591 70.6C191.591 91.6005 186.345 108.099 176.061 120.312L179.12 122.888C190.169 109.768 195.591 92.2662 195.591 70.6H191.591ZM176.053 120.321C165.928 132.496 152.443 138.6 135.391 138.6V142.6C153.539 142.6 168.186 136.037 179.128 122.879L176.053 120.321ZM117.454 99.9923C121.507 107.084 127.468 110.8 135.191 110.8V106.8C129.047 106.8 124.341 103.983 120.927 98.0077L117.454 99.9923ZM135.191 110.8C143.03 110.8 149.066 107.099 153.127 99.9923L149.654 98.0077C146.249 103.967 141.484 106.8 135.191 106.8V110.8ZM153.112 100.019C157.241 93.0419 159.191 83.2264 159.191 70.8H155.191C155.191 82.907 153.274 91.8915 149.669 97.9814L153.112 100.019ZM159.191 70.8C159.191 58.3695 157.239 48.4978 153.121 41.3966L149.661 43.4034C153.275 49.6355 155.191 58.6972 155.191 70.8H159.191ZM153.136 41.4228C149.093 34.2031 143.134 30.4 135.391 30.4V34.4C141.514 34.4 146.222 37.2636 149.646 43.3772L153.136 41.4228ZM135.391 30.4C127.531 30.4 121.497 34.1874 117.446 41.4228L120.936 43.3772C124.35 37.2793 129.117 34.4 135.391 34.4V30.4ZM117.454 41.4077C113.472 48.3772 111.591 58.1814 111.591 70.6H115.591C115.591 58.4852 117.443 49.4895 120.927 43.3923L117.454 41.4077ZM111.591 70.6C111.591 83.0227 113.473 92.8833 117.446 99.9772L120.936 98.0228C117.442 91.7833 115.591 82.7106 115.591 70.6H111.591ZM228.65 88.4V86.4H226.867L226.663 88.1712L228.65 88.4ZM266.54 88.4H268.54V86.4H266.54V88.4ZM266.54 137V139H268.54V137H266.54ZM250.07 137H248.07V139H250.07V137ZM250.07 102.44H252.07V100.44H250.07V102.44ZM242.51 102.44V100.44H240.696L240.519 102.245L242.51 102.44ZM241.16 116.21L243.148 116.422L243.149 116.414L243.15 116.405L241.16 116.21ZM234.86 132.23L236.261 133.657L236.261 133.657L234.86 132.23ZM215.96 137.18H213.96V139.18H215.96V137.18ZM215.96 123.41V121.41H213.96V123.41H215.96ZM223.25 121.61L221.835 120.196L221.817 120.214L221.8 120.232L223.25 121.61ZM225.5 115.76L223.513 115.531L223.512 115.539L225.5 115.76ZM228.65 90.4H266.54V86.4H228.65V90.4ZM264.54 88.4V137H268.54V88.4H264.54ZM266.54 135H250.07V139H266.54V135ZM252.07 137V102.44H248.07V137H252.07ZM250.07 100.44H242.51V104.44H250.07V100.44ZM240.519 102.245L239.169 116.015L243.15 116.405L244.5 102.635L240.519 102.245ZM239.171 115.998C238.415 123.092 236.411 127.902 233.458 130.803L236.261 133.657C240.148 129.838 242.344 123.968 243.148 116.422L239.171 115.998ZM233.458 130.803C230.585 133.625 226.328 135.18 220.37 135.18V139.18C227.012 139.18 232.415 137.435 236.261 133.657L233.458 130.803ZM220.37 135.18H215.96V139.18H220.37V135.18ZM217.96 137.18V123.41H213.96V137.18H217.96ZM215.96 125.41H218.12V121.41H215.96V125.41ZM218.12 125.41C220.735 125.41 223.057 124.717 224.7 122.988L221.8 120.232C221.162 120.903 220.064 121.41 218.12 121.41V125.41ZM224.664 123.024C226.328 121.36 227.165 118.879 227.487 115.981L223.512 115.539C223.234 118.041 222.572 119.46 221.835 120.196L224.664 123.024ZM227.487 115.989L230.637 88.6288L226.663 88.1712L223.513 115.531L227.487 115.989ZM326.812 116.66V118.66H328.528L328.789 116.964L326.812 116.66ZM290.722 116.66V114.66H288.293L288.759 117.044L290.722 116.66ZM294.052 122.96L292.751 124.479L292.764 124.49L292.777 124.501L294.052 122.96ZM304.312 124.58L303.71 122.673L304.312 124.58ZM307.282 123.05L308.518 124.623L308.525 124.617L308.532 124.612L307.282 123.05ZM309.442 120.53V118.53H308.273L307.699 119.549L309.442 120.53ZM326.092 120.53L328.007 121.107L328.783 118.53H326.092V120.53ZM316.642 133.76L315.494 132.122L315.484 132.13L316.642 133.76ZM281.722 131.24L280.308 132.654L280.317 132.663L280.325 132.671L281.722 131.24ZM277.672 99.38L279.406 100.378L277.672 99.38ZM287.122 90.11L286.155 88.3592L287.122 90.11ZM314.392 90.2L313.406 91.9397L313.421 91.9484L313.436 91.9568L314.392 90.2ZM323.842 99.38L322.104 100.369L322.111 100.381L323.842 99.38ZM294.502 101.9L295.73 103.479L295.738 103.473L294.502 101.9ZM290.992 107.39L289.077 106.815L288.304 109.39H290.992V107.39ZM310.702 107.39V109.39H313.393L312.617 106.813L310.702 107.39ZM325.172 112.25C325.172 113.515 325.062 114.883 324.836 116.356L328.789 116.964C329.042 115.317 329.172 113.745 329.172 112.25H325.172ZM326.812 114.66H290.722V118.66H326.812V114.66ZM288.759 117.044C289.362 120.124 290.645 122.674 292.751 124.479L295.354 121.441C294.099 120.366 293.162 118.716 292.685 116.276L288.759 117.044ZM292.777 124.501C294.935 126.286 297.599 127.12 300.622 127.12V123.12C298.365 123.12 296.65 122.514 295.327 121.419L292.777 124.501ZM300.622 127.12C302.125 127.12 303.561 126.915 304.915 126.487L303.71 122.673C302.784 122.965 301.759 123.12 300.622 123.12V127.12ZM304.915 126.487C306.257 126.063 307.467 125.448 308.518 124.623L306.047 121.477C305.417 121.972 304.648 122.377 303.71 122.673L304.915 126.487ZM308.532 124.612C309.623 123.739 310.514 122.704 311.185 121.511L307.699 119.549C307.291 120.276 306.742 120.921 306.033 121.488L308.532 124.612ZM309.442 122.53H326.092V118.53H309.442V122.53ZM324.177 119.953C322.622 125.119 319.734 129.149 315.494 132.123L317.791 135.397C322.791 131.891 326.203 127.101 328.007 121.107L324.177 119.953ZM315.484 132.13C311.294 135.106 306.368 136.62 300.622 136.62V140.62C307.116 140.62 312.87 138.894 317.801 135.39L315.484 132.13ZM300.622 136.62C293.542 136.62 287.757 134.336 283.119 129.809L280.325 132.671C285.768 137.984 292.582 140.62 300.622 140.62V136.62ZM283.136 129.826C278.551 125.24 276.252 119.578 276.252 112.7H272.252C272.252 120.582 274.933 127.28 280.308 132.654L283.136 129.826ZM276.252 112.7C276.252 108.103 277.314 104.011 279.406 100.378L275.939 98.3821C273.471 102.669 272.252 107.457 272.252 112.7H276.252ZM279.406 100.378C281.503 96.7357 284.387 93.9053 288.089 91.8608L286.155 88.3592C281.818 90.7547 278.402 94.1043 275.939 98.3821L279.406 100.378ZM288.089 91.8608C291.788 89.8179 295.951 88.78 300.622 88.78V84.78C295.333 84.78 290.496 85.9621 286.155 88.3592L288.089 91.8608ZM300.622 88.78C305.478 88.78 309.72 89.8495 313.406 91.9397L315.379 88.4603C311.024 85.9905 306.087 84.78 300.622 84.78V88.78ZM313.436 91.9568C317.201 94.0054 320.075 96.8047 322.104 100.369L325.58 98.3906C323.169 94.1553 319.743 90.8346 315.348 88.4432L313.436 91.9568ZM322.111 100.381C324.143 103.896 325.172 107.836 325.172 112.25H329.172C329.172 107.184 327.982 102.544 325.574 98.379L322.111 100.381ZM300.622 97.92C297.832 97.92 295.342 98.6965 293.267 100.327L295.738 103.473C297.022 102.463 298.612 101.92 300.622 101.92V97.92ZM293.274 100.321C291.26 101.888 289.889 104.107 289.077 106.815L292.908 107.965C293.535 105.873 294.505 104.432 295.73 103.479L293.274 100.321ZM290.992 109.39H310.702V105.39H290.992V109.39ZM312.617 106.813C311.774 104.013 310.351 101.739 308.248 100.181C306.146 98.6228 303.553 97.92 300.622 97.92V101.92C302.911 101.92 304.609 102.462 305.866 103.394C307.124 104.326 308.131 105.787 308.787 107.967L312.617 106.813ZM377.02 88.4H379.02V86.4H377.02V88.4ZM377.02 102.89V104.89H379.02V102.89H377.02ZM361.72 102.89V100.89H359.72V102.89H361.72ZM361.72 137V139H363.72V137H361.72ZM345.34 137H343.34V139H345.34V137ZM345.34 102.89H347.34V100.89H345.34V102.89ZM329.95 102.89H327.95V104.89H329.95V102.89ZM329.95 88.4V86.4H327.95V88.4H329.95ZM375.02 88.4V102.89H379.02V88.4H375.02ZM377.02 100.89H361.72V104.89H377.02V100.89ZM359.72 102.89V137H363.72V102.89H359.72ZM361.72 135H345.34V139H361.72V135ZM347.34 137V102.89H343.34V137H347.34ZM345.34 100.89H329.95V104.89H345.34V100.89ZM331.95 102.89V88.4H327.95V102.89H331.95ZM329.95 90.4H377.02V86.4H329.95V90.4Z" fill="#10B3F3" fill-opacity="0.1"/>
</svg>
