<svg width="445" height="447" viewBox="0 0 445 447" fill="none" xmlns="http://www.w3.org/2000/svg">
<path fill-rule="evenodd" clip-rule="evenodd" d="M223.942 246.251C205.088 245.996 198.77 251.317 198.773 262.488C198.773 277.091 212.108 297.637 221.947 298.192C232.242 298.778 249.406 276.484 249.107 262.045C248.871 250.603 240.482 245.338 223.942 246.251ZM175.796 283.543L195.939 316.781C202.141 327.015 199.97 340.252 190.826 347.958C148.937 383.261 115.714 405.697 91.158 415.269C77.7444 420.493 63.3349 424.328 49.0646 425.864C30.3686 427.872 22.6522 417.308 29.1486 399.735C33.2808 388.548 38.7661 377.477 45.6257 367.756C72.32 329.921 107.785 301.827 147.063 278.285L149.377 276.906C158.511 271.495 170.288 274.454 175.796 283.543ZM272.634 280.509C278.142 271.42 289.918 268.461 299.053 273.872L301.367 275.251C340.645 298.793 376.11 326.887 402.804 364.722C409.664 374.443 415.149 385.514 419.281 396.701C425.778 414.274 418.061 424.838 399.365 422.83C385.095 421.294 370.685 417.459 357.272 412.235C332.715 402.663 299.493 380.227 257.604 344.924C248.46 337.218 246.289 323.981 252.491 313.747L272.634 280.509ZM258.888 25.9684C270.155 45.1252 276.252 54.3943 282.7 89.1153C289.148 123.836 289.148 201.844 285.094 221.435C282.173 235.552 286.635 241.001 298.078 247.024C346.919 272.725 390.093 305.996 421.576 351.806C432.304 367.419 440.112 386.792 443.251 405.463C447.229 429.098 431.036 444.031 406.833 445.478C380.79 447.038 356.376 439.859 334.441 427.399C306.064 411.279 276.871 390.166 251.126 369.98C241.755 362.632 233.84 352.847 224.353 352.847C218.199 352.847 212.196 358.437 206.235 364.456L204.746 365.967C202.016 368.742 199.295 371.516 196.569 373.794C166.179 399.195 133.761 421.573 96.29 434.887C80.4214 440.524 63.2056 444.371 46.4409 445.042C12.4726 446.398 -5.52847 422.101 6.39093 389.707C19.9536 352.847 33.195 341.005 53.0191 319.934C71.9035 299.862 94.7003 284 117.784 268.596L123.328 264.906C131.646 259.378 139.964 253.871 148.113 248.21C158.263 241.159 162.307 236.344 160.243 223.319C151.873 170.506 152.484 117.687 167.802 65.9931C171.91 52.1277 177.867 38.2986 185.596 26.1262C206.523 -6.83534 239.189 -7.53013 258.888 25.9684ZM198.871 48.1588L198.276 49.6467C198.08 50.1419 197.886 50.636 197.694 51.1281L197.121 52.5972C196.646 53.8148 196.179 55.0135 195.71 56.1781C180.001 95.2046 176.517 136.319 178.212 177.878C178.315 180.412 178.384 182.971 178.45 185.52L178.517 188.064C178.88 201.602 179.475 214.513 185.148 221.335C192.24 229.862 248.942 234.829 261.266 221.335C273.589 207.841 265.684 98.4237 249.182 55.8352C244.148 42.8466 238.678 25.8926 223.051 25.5588C209.48 25.2699 203.488 36.742 198.871 48.1588Z" fill="#10B3F3" fill-opacity="0.05"/>
</svg>
