<svg width="24" height="25" viewBox="0 0 24 25" fill="none" xmlns="http://www.w3.org/2000/svg">
<path d="M10.21 15.6592C10.303 15.7529 10.4136 15.8273 10.5354 15.8781C10.6573 15.9288 10.788 15.955 10.92 15.955C11.052 15.955 11.1827 15.9288 11.3046 15.8781C11.4264 15.8273 11.537 15.7529 11.63 15.6592L15.71 11.5792C15.8983 11.3909 16.0041 11.1355 16.0041 10.8692C16.0041 10.6029 15.8983 10.3475 15.71 10.1592C15.5217 9.97088 15.2663 9.86509 15 9.86509C14.7337 9.86509 14.4783 9.97088 14.29 10.1592L10.92 13.5392L9.71 12.3192C9.5217 12.1309 9.2663 12.0251 9 12.0251C8.7337 12.0251 8.4783 12.1309 8.29 12.3192C8.1017 12.5075 7.99591 12.7629 7.99591 13.0292C7.99591 13.2955 8.1017 13.5509 8.29 13.7392L10.21 15.6592ZM21 2.90918H3C2.73478 2.90918 2.48043 3.01454 2.29289 3.20207C2.10536 3.38961 2 3.64396 2 3.90918V21.9092C2 22.1744 2.10536 22.4288 2.29289 22.6163C2.48043 22.8038 2.73478 22.9092 3 22.9092H21C21.2652 22.9092 21.5196 22.8038 21.7071 22.6163C21.8946 22.4288 22 22.1744 22 21.9092V3.90918C22 3.64396 21.8946 3.38961 21.7071 3.20207C21.5196 3.01454 21.2652 2.90918 21 2.90918ZM20 20.9092H4V4.90918H20V20.9092Z" fill="#10B3F3"/>
</svg>
