<svg width="73" height="14" viewBox="0 0 73 14" fill="none" xmlns="http://www.w3.org/2000/svg">
<g clip-path="url(#clip0_2_320)">
<path fill-rule="evenodd" clip-rule="evenodd" d="M47.9528 7.71084C47.9954 7.99084 48.0167 8.20622 48.0807 8.42161C48.5499 10.4247 50.1068 11.7601 52.1329 11.9324C53.9243 12.0831 55.3319 11.3939 56.3769 9.90776C56.8888 9.19699 57.7205 9.06776 58.3817 9.6493C58.7656 9.97238 58.8082 10.4031 58.5097 10.8124C58.339 11.0278 58.1897 11.2431 58.0191 11.4801C57.3367 12.4278 56.4409 13.0739 55.3319 13.4616C53.5405 14.0862 51.749 14.1724 49.9788 13.5047C47.5902 12.6216 46.1826 10.8555 45.7774 8.33546C45.5428 6.78469 45.6921 5.23392 46.3959 3.83392C47.4196 1.83084 49.0191 0.603149 51.2371 0.236995C52.7087 7.18832e-05 54.1589 0.150841 55.5239 0.818533C57.4646 1.74469 58.6376 3.31699 59.0855 5.40623C59.2134 5.98776 59.2561 6.5693 59.2988 7.15084C59.3414 7.51699 59.1708 7.66776 58.8082 7.6893C58.6376 7.6893 58.4883 7.6893 58.3177 7.6893C55.012 7.6893 51.7063 7.6893 48.422 7.6893C48.2727 7.71084 48.166 7.71084 47.9528 7.71084ZM56.9741 5.51392C56.6968 3.64007 54.4575 2.00315 52.3888 2.13238C50.2348 2.26161 48.1021 3.92007 48.0167 5.51392C50.9812 5.51392 53.9883 5.51392 56.9741 5.51392Z" fill="white" fill-opacity="0.5"/>
<path fill-rule="evenodd" clip-rule="evenodd" d="M31.019 7.64608C31.0403 7.83993 31.0617 7.96916 31.083 8.11993C31.4882 10.3384 33.2797 11.8676 35.4977 11.9107C37.1825 11.9322 38.4835 11.243 39.4645 9.86454C39.9764 9.13224 40.8934 9.04608 41.5332 9.69224C41.8318 10.0153 41.8958 10.403 41.5972 10.7907C41.4692 10.9845 41.3413 11.1569 41.192 11.3076C40.4669 12.3845 39.4645 13.0738 38.2489 13.483C36.4574 14.0861 34.6659 14.1292 32.9384 13.4399C30.4645 12.4707 29.0783 10.5538 28.7797 7.883C28.6304 6.5907 28.7584 5.34147 29.2915 4.15685C30.3366 1.91685 32.0214 0.538388 34.474 0.215311C35.7749 0.0430031 37.0759 0.150695 38.2702 0.64608C40.4456 1.5507 41.7038 3.25223 42.1944 5.55685C42.2797 6.07377 42.3437 6.63377 42.365 7.1507C42.3863 7.58147 42.301 7.66762 41.8531 7.66762C41.0854 7.66762 40.2749 7.66762 39.4858 7.66762C36.8413 7.66762 34.1967 7.66762 31.5948 7.66762C31.4029 7.64608 31.2323 7.64608 31.019 7.64608ZM40.083 5.44916C39.8057 3.59685 37.6304 2.02454 35.4977 2.06762C33.429 2.1107 31.2749 3.7907 31.1043 5.44916C34.0901 5.44916 37.0546 5.44916 40.083 5.44916Z" fill="white" fill-opacity="0.5"/>
<path fill-rule="evenodd" clip-rule="evenodd" d="M68.128 8.63728C68.2987 8.78805 68.384 8.8742 68.4906 8.96036C69.6423 9.95113 70.7939 10.9419 71.9243 11.9327C71.9882 11.9973 72.0949 12.0834 72.1589 12.1481C72.5854 12.5788 72.628 13.2034 72.2228 13.6342C71.8389 14.065 71.2418 14.1296 70.7939 13.7634C69.9835 13.0957 69.2157 12.4065 68.4266 11.7388C67.2963 10.7696 66.1873 9.80036 65.0569 8.83113C64.9716 8.74497 64.8437 8.65882 64.6731 8.52959C64.6731 8.76651 64.6517 8.91728 64.6517 9.06805C64.6517 11.8034 64.6517 9.75728 64.6517 12.4927C64.6517 12.6219 64.6517 12.7511 64.6517 12.8804C64.6091 13.4834 64.1612 13.9142 63.5641 13.8711C62.9882 13.8496 62.6043 13.4188 62.583 12.8157C62.583 12.6865 62.583 12.5573 62.583 12.4281C62.583 7.0219 62.583 6.39728 62.583 0.991127C62.583 0.818819 62.583 0.66805 62.583 0.495743C62.583 0.10805 62.6257 0.0434348 62.9882 0.0434348C63.4787 0.0218963 63.9693 0.0218963 64.4598 0.0218963C65.6328 0.0218963 66.8484 0.0649733 68.0214 0.000357877C70.0048 -0.085796 72.2228 1.52959 72.4361 3.87728C72.628 5.98805 71.1991 7.99113 69.0664 8.4219C68.7892 8.48651 68.4906 8.57267 68.128 8.63728ZM64.5238 6.97882C64.6517 7.00036 64.737 7.00036 64.801 7.00036C65.7821 7.00036 66.7844 7.00036 67.7655 7.00036C68.0427 7.00036 68.3413 6.97882 68.6186 6.87113C69.5356 6.59113 70.2607 6.03113 70.4953 5.04036C70.9006 3.33882 69.6423 1.78805 67.9148 1.78805C66.8911 1.78805 65.8887 1.78805 64.8437 1.78805C64.7157 1.78805 64.6091 1.80959 64.4811 1.80959C64.5238 3.53267 64.5238 5.2342 64.5238 6.97882Z" fill="white" fill-opacity="0.5"/>
<path fill-rule="evenodd" clip-rule="evenodd" d="M23.341 7.6678C21.3789 7.6678 19.4808 7.6678 17.5401 7.6678C17.5401 7.84011 17.5188 7.99088 17.5188 8.14165C17.5188 9.64934 17.5188 11.1355 17.5188 12.6432C17.5188 12.837 17.5188 13.0309 17.4761 13.1817C17.3268 13.634 16.8576 13.914 16.4098 13.8924C15.9192 13.8493 15.514 13.4616 15.45 12.9663C15.4287 12.837 15.45 12.7293 15.45 12.6001C15.45 7.23704 15.4287 6.59088 15.4287 1.24934C15.4287 1.03396 15.45 0.818575 15.514 0.624729C15.6846 0.172422 16.1538 -0.0860398 16.6443 -0.0214244C17.0922 0.0431909 17.4761 0.430883 17.5188 0.904729C17.5401 1.0555 17.5188 1.18473 17.5188 1.3355C17.5188 4.09242 17.5401 2.13242 17.5401 4.88934C17.5401 5.06165 17.5614 5.21242 17.5614 5.36319C17.924 5.44934 22.9571 5.44934 23.341 5.36319C23.341 5.23396 23.3624 5.10473 23.3624 4.95396C23.3624 3.74781 23.3624 2.52011 23.3624 1.31396C23.3624 1.18473 23.3624 1.07704 23.3624 0.947806C23.405 0.409345 23.8102 0.000114035 24.3434 -0.0214244C24.8766 -0.0429629 25.3671 0.366268 25.4311 0.904729C25.4524 1.03396 25.4311 1.14165 25.4311 1.27088C25.4311 5.04011 25.4311 8.7878 25.4311 12.557C25.4311 12.6863 25.4311 12.794 25.4311 12.9232C25.3671 13.4616 24.8979 13.8924 24.3647 13.8709C23.8315 13.8493 23.405 13.4186 23.341 12.8801C23.341 12.7509 23.341 12.6432 23.341 12.514C23.341 11.0709 23.341 9.58473 23.341 8.14165C23.341 8.01242 23.341 7.86165 23.341 7.6678Z" fill="white" fill-opacity="0.5"/>
<path fill-rule="evenodd" clip-rule="evenodd" d="M6.3649 13.9785C4.97865 13.957 3.6777 13.6554 2.48339 12.9231C1.97154 12.6216 1.50234 12.2339 1.11846 11.7816C0.926514 11.5447 0.691916 11.3077 0.606608 11.0062C0.478646 10.6185 0.457319 10.1877 0.819878 9.84313C1.22509 9.45544 1.77959 9.30467 2.3341 9.67082C2.86727 10.0585 3.1232 10.5539 3.57106 11.0062C4.21087 11.6524 5.04263 11.997 5.93836 12.1047C6.77011 12.1908 7.58054 12.1693 8.39097 11.8893C8.71087 11.7601 9.05211 11.6093 9.32936 11.3939C9.8412 10.8124 9.99049 9.9939 9.37201 9.4339C9.07343 9.17544 8.68955 8.98159 8.30566 8.80928C7.36727 8.40005 6.38623 8.12005 5.40519 7.86159C4.59476 7.66775 3.82699 7.40928 3.01656 7.17236C2.71798 7.08621 2.4194 6.9139 2.14215 6.76313C1.39571 6.3539 0.969168 5.70775 0.841205 4.88928C0.606608 3.18775 1.22509 1.65852 2.69666 0.904669C4.99997 -0.236869 7.3886 -0.129177 9.69192 1.18467C10.1185 1.42159 10.5237 1.78775 10.8862 2.11082C11.1635 2.34775 11.3767 2.69236 11.4834 3.05852C11.59 3.51082 11.3767 3.98467 10.8222 4.1139C10.3531 4.22159 9.92651 4.07082 9.58528 3.70467C9.5213 3.64005 9.45732 3.5539 9.41466 3.48928C8.88149 2.67082 8.09239 2.21852 7.154 2.04621C6.21561 1.8739 5.27722 1.89544 4.38149 2.26159C4.06158 2.39082 3.72035 2.56313 3.46443 2.80005C3.08054 3.31698 2.93125 4.00621 3.4431 4.65236C3.84831 5.04005 4.31751 5.25544 4.82936 5.36313C5.95969 5.64313 7.11135 5.94467 8.24168 6.22467C8.9668 6.41852 9.67059 6.65544 10.3317 7.04313C11.1848 7.49544 11.8033 8.16313 12.0166 9.13236C12.2725 10.317 12.0166 11.437 11.0995 12.2985C10.0545 13.2462 8.86016 13.7631 7.47391 13.9139C7.09002 13.957 6.70613 13.957 6.3649 13.9785Z" fill="white" fill-opacity="0.5"/>
</g>
<defs>
<clipPath id="clip0_2_320">
<rect width="72" height="14" fill="white" transform="translate(0.5)"/>
</clipPath>
</defs>
</svg>
