<svg width="26" height="32" viewBox="0 0 26 32" fill="none" xmlns="http://www.w3.org/2000/svg">
<path d="M4 0.25C3.10489 0.25 2.24645 0.605579 1.61351 1.23851C0.980579 1.87145 0.625 2.72989 0.625 3.625V28.375C0.625 29.2701 0.980579 30.1286 1.61351 30.7615C2.24645 31.3944 3.10489 31.75 4 31.75H22C22.8951 31.75 23.7536 31.3944 24.3865 30.7615C25.0194 30.1286 25.375 29.2701 25.375 28.375V10.1815C25.3745 9.28686 25.0188 8.42901 24.3861 7.7965L17.8296 1.23775C17.1967 0.605183 16.3384 0.249893 15.4435 0.25H4ZM2.875 3.625C2.875 3.32663 2.99353 3.04048 3.2045 2.8295C3.41548 2.61853 3.70163 2.5 4 2.5H14.125V8.125C14.125 9.02011 14.4806 9.87855 15.1135 10.5115C15.7464 11.1444 16.6049 11.5 17.5 11.5H23.125V28.375C23.125 28.6734 23.0065 28.9595 22.7955 29.1705C22.5845 29.3815 22.2984 29.5 22 29.5H4C3.70163 29.5 3.41548 29.3815 3.2045 29.1705C2.99353 28.9595 2.875 28.6734 2.875 28.375V3.625ZM22.6593 9.25H17.5C17.2016 9.25 16.9155 9.13147 16.7045 8.9205C16.4935 8.70952 16.375 8.42337 16.375 8.125V2.96575L22.6593 9.25Z" fill="#10B3F3"/>
</svg>
