<svg width="21" height="18" viewBox="0 0 21 18" fill="none" xmlns="http://www.w3.org/2000/svg">
<g clip-path="url(#clip0_14_2304)">
<path d="M19.475 0.200396L0.823011 7.45846C0.823011 7.45846 -0.0618598 7.75569 0.00781506 8.30869C0.0774899 8.86168 0.795141 9.11744 0.795141 9.11744L5.48426 10.6866L5.49123 10.6935V10.6866L16.7507 3.58749C16.7507 3.58749 17.3987 3.19348 17.3778 3.58749C17.3778 3.58749 17.4962 3.65662 17.1478 3.9815C16.7995 4.30639 8.29912 11.8824 8.29912 11.8824L8.28519 12.0276L15.9355 17.8479C17.2105 18.4009 17.6774 17.2465 17.6774 17.2465L21.0008 0.63588C21.0008 -0.470111 19.468 0.200396 19.475 0.200396Z" fill="#10B3F3"/>
<path d="M11.2111 14.2538L8.18024 16.998C8.18024 16.998 7.94334 17.1777 7.68555 17.0671L8.26385 11.9727" fill="#10B3F3"/>
</g>
<defs>
<clipPath id="clip0_14_2304">
<rect width="21" height="18" fill="white"/>
</clipPath>
</defs>
</svg>
