<svg width="21" height="23" viewBox="0 0 21 23" fill="none" xmlns="http://www.w3.org/2000/svg">
<path d="M19.2366 12.8845C18.6906 17.5484 15.3936 17.8465 14.7846 18.0595C14.5326 18.1447 12.1176 18.7623 9.11462 18.5706L5.83862 22.2549V18.0169H5.81762C1.42862 16.7391 1.57562 11.99 1.61762 9.49837C1.65962 7.0067 2.12162 4.96226 3.46562 3.578C5.88062 1.32059 10.8366 1.66133 10.8366 1.66133C15.0366 1.68263 17.0316 2.9817 17.4936 3.42892C19.0266 4.79189 19.8246 8.07152 19.2366 12.8845ZM18.6276 2.23633C18.0816 1.72522 15.8556 0.0428132 10.8996 0.0215169C10.8996 0.0215169 5.06162 -0.34052 2.20562 2.36411C0.630615 4.00392 0.0636151 6.41041 0.0216151 9.39189C-0.0413849 12.3734 -0.104385 17.9743 5.08262 19.4863V21.8076C5.08262 21.8076 5.04062 22.7447 5.64962 22.9363C6.36362 23.1706 6.78361 22.4465 7.47661 21.6799C7.85461 21.2539 8.37961 20.6363 8.75762 20.1678C12.3066 20.4873 15.0366 19.7632 15.3516 19.6567C16.0656 19.4224 20.1186 18.8687 20.7906 13.2891C21.4626 7.53911 20.4546 3.87615 18.6276 2.23633Z" fill="#10B3F3"/>
<path d="M15.4561 13.5871C15.4561 13.5871 14.7841 13.0121 14.4691 12.7566C14.1541 12.5223 13.6711 12.2029 13.3981 12.0538C12.9151 11.777 12.4111 11.9473 12.2011 12.2242L11.7811 12.7779C11.5711 13.0547 11.2141 13.0121 11.1301 12.9909C10.5001 12.8205 9.82813 12.4371 9.13513 11.7557C8.44213 11.0742 8.02213 10.3501 7.87513 9.62604L7.85413 9.58345C7.81213 9.2853 7.85413 9.13622 7.98013 8.92326L8.00113 8.90196C8.29513 8.62511 8.82013 8.30567 8.90413 7.98622C9.11413 7.43252 8.19013 6.28252 8.06413 6.09085C8.06413 6.09085 7.39213 5.19641 7.16113 5.02604C6.90913 4.81308 6.51013 4.6853 6.11113 4.94085H6.09013C4.93513 5.72882 4.53613 6.17604 4.64113 6.85752L4.70413 7.13437C5.29213 8.98715 6.40513 10.989 8.08513 12.7566C9.74413 14.4816 11.5501 15.5251 13.3141 16.2492C13.7761 16.3983 14.2591 16.2705 14.7421 15.8446C15.1201 15.4825 15.4141 15.0992 15.6241 14.6946C15.8551 14.2686 15.7711 13.864 15.4561 13.5871Z" fill="#10B3F3"/>
<path d="M12.7064 9.49821C12.6434 9.49821 12.5804 9.43432 12.5804 9.37043C12.5594 8.88062 12.4334 8.51858 12.2024 8.26302C11.9714 8.00747 11.6354 7.87969 11.1944 7.8584C11.1314 7.8584 11.0684 7.79451 11.0684 7.70932C11.0684 7.62414 11.1314 7.58154 11.2154 7.58154C11.7404 7.60284 12.1394 7.77321 12.4124 8.07136C12.6854 8.36951 12.8324 8.79543 12.8744 9.34914C12.8534 9.43432 12.7904 9.49821 12.7064 9.49821Z" fill="#10B3F3"/>
<path d="M14.0084 9.96677C13.9244 9.96677 13.8824 9.90288 13.8824 9.81769C13.9034 8.90195 13.6304 8.11399 13.0844 7.4964C12.8114 7.17695 12.4754 6.94269 12.0974 6.77232C11.7194 6.60195 11.2784 6.49547 10.7744 6.45288C10.7114 6.45288 10.6484 6.38899 10.6484 6.3038C10.6484 6.21862 10.7114 6.17603 10.7954 6.17603C11.8454 6.26121 12.6854 6.64454 13.2734 7.30473C13.8614 7.98621 14.1554 8.81677 14.1344 9.81769C14.1554 9.90288 14.0924 9.96677 14.0084 9.96677Z" fill="#10B3F3"/>
<path d="M15.3525 10.499C15.2895 10.499 15.2265 10.4352 15.2265 10.3713C15.2265 9.56201 15.1005 8.81664 14.8695 8.17775C14.6385 7.53886 14.2815 6.98515 13.8195 6.51664C13.3575 6.04812 12.8325 5.68608 12.2655 5.45182C11.6985 5.21756 11.0475 5.08978 10.3545 5.08978C10.2915 5.08978 10.2285 5.02589 10.2285 4.96201C10.2285 4.87682 10.2915 4.83423 10.3545 4.83423C11.8035 4.85552 13.0215 5.34534 14.0085 6.34627C14.4915 6.83608 14.8695 7.43238 15.1215 8.11386C15.3735 8.79534 15.4995 9.56201 15.4995 10.4139C15.4995 10.4352 15.4365 10.499 15.3525 10.499Z" fill="#10B3F3"/>
</svg>
