<svg width="51" height="52" viewBox="0 0 51 52" fill="none" xmlns="http://www.w3.org/2000/svg">
<g clip-path="url(#clip0_2_21)">
<path fill-rule="evenodd" clip-rule="evenodd" d="M25.6651 28.8374C23.5044 28.8082 22.7803 29.4166 22.7806 30.6941C22.7806 32.3639 24.3089 34.7134 25.4364 34.7768C26.6164 34.8438 28.5835 32.2945 28.5492 30.6434C28.5221 29.335 27.5607 28.733 25.6651 28.8374ZM20.1473 33.1017L22.4558 36.9025C23.1665 38.0727 22.9177 39.5864 21.8698 40.4676C17.0691 44.5044 13.2615 47.07 10.4472 48.1645C8.90989 48.762 7.25846 49.2005 5.62299 49.376C3.4803 49.6057 2.59595 48.3977 3.34048 46.3882C3.81406 45.109 4.44271 43.8431 5.22887 42.7315C8.28821 38.405 12.3527 35.1924 16.8542 32.5005L17.1195 32.3427C18.1663 31.7241 19.516 32.0624 20.1473 33.1017ZM31.2455 32.7548C31.8768 31.7155 33.2265 31.3771 34.2733 31.9958L34.5386 32.1535C39.0401 34.8455 43.1046 38.058 46.1639 42.3845C46.9501 43.4961 47.5787 44.7621 48.0523 46.0413C48.7968 48.0507 47.9125 49.2588 45.7698 49.0291C44.1343 48.8535 42.4829 48.415 40.9456 47.8176C38.1313 46.7231 34.3237 44.1574 29.523 40.1207C28.4751 39.2395 28.2263 37.7258 28.937 36.5555L31.2455 32.7548ZM29.6701 3.64811C30.9614 5.83868 31.6602 6.8986 32.3991 10.8689C33.1381 14.8393 33.1381 23.7595 32.6736 25.9996C32.3388 27.614 32.8502 28.2371 34.1616 28.9257C39.7591 31.8646 44.7071 35.6692 48.3153 40.9076C49.5448 42.693 50.4396 44.9082 50.7994 47.0432C51.2553 49.7459 49.3995 51.4535 46.6257 51.619C43.641 51.7973 40.8429 50.9765 38.329 49.5516C35.0768 47.7083 31.7311 45.294 28.7806 42.9858C27.7066 42.1455 26.7995 41.0266 25.7122 41.0266C25.007 41.0266 24.3189 41.6658 23.6358 42.3541L23.4651 42.5268C23.1523 42.8441 22.8404 43.1614 22.528 43.4219C19.0451 46.3264 15.3297 48.8855 11.0353 50.4078C9.21669 51.0524 7.24365 51.4924 5.3223 51.569C1.4293 51.7241 -0.633745 48.9458 0.732299 45.2416C2.28667 41.0266 3.80422 39.6724 6.0762 37.263C8.24048 34.9678 10.8531 33.1539 13.4987 31.3925L14.1341 30.9706C15.0874 30.3385 16.0407 29.7088 16.9746 29.0614C18.1379 28.2551 18.6014 27.7045 18.3648 26.2151C17.4055 20.1759 17.4756 14.1361 19.2311 8.22493C19.7019 6.63942 20.3846 5.05807 21.2704 3.66615C23.6688 -0.102991 27.4126 -0.18244 29.6701 3.64811ZM22.7918 6.18558L22.7236 6.35572C22.7012 6.41234 22.6789 6.46885 22.6569 6.52512L22.5912 6.69311C22.5368 6.83234 22.4832 6.96941 22.4295 7.10258C20.6292 11.5653 20.2299 16.2666 20.4242 21.019C20.436 21.3087 20.4439 21.6013 20.4515 21.8928L20.4591 22.1837C20.5007 23.7318 20.5689 25.2081 21.2191 25.9882C22.0318 26.9633 28.5303 27.5312 29.9426 25.9882C31.355 24.4452 30.449 11.9334 28.5578 7.06338C27.9809 5.57813 27.354 3.63944 25.5631 3.60127C24.0077 3.56824 23.321 4.88007 22.7918 6.18558Z" fill="#10B3F3"/>
</g>
<defs>
<clipPath id="clip0_2_21">
<rect width="51" height="51" fill="white" transform="translate(0 0.75)"/>
</clipPath>
</defs>
</svg>
